<svg width="16" height="16" viewBox="0 0 16 16" fill="none" xmlns="http://www.w3.org/2000/svg">
<g id="grid">
<path id="shape" fill-rule="evenodd" clip-rule="evenodd" d="M4.15642 0.800049H4.08983H4.08981C3.51127 0.800033 3.02866 0.80002 2.64148 0.845785C2.23467 0.893872 1.86179 0.998987 1.54251 1.26101C1.43969 1.3454 1.3454 1.43969 1.26101 1.54251C0.998987 1.86179 0.893872 2.23467 0.845785 2.64148C0.80002 3.02866 0.800033 3.51127 0.800049 4.08981V4.08983V4.15642V4.15644C0.800033 4.73498 0.80002 5.2176 0.845785 5.60477C0.893872 6.01158 0.998987 6.38446 1.26101 6.70374C1.3454 6.80657 1.43969 6.90085 1.54251 6.98524C1.86179 7.24727 2.23467 7.35238 2.64148 7.40047C3.02866 7.44623 3.51128 7.44622 4.08983 7.4462H4.15642C4.73497 7.44622 5.21759 7.44623 5.60477 7.40047C6.01158 7.35238 6.38446 7.24727 6.70374 6.98524C6.80657 6.90085 6.90085 6.80657 6.98524 6.70374C7.24727 6.38446 7.35238 6.01158 7.40047 5.60477C7.44623 5.21759 7.44622 4.73497 7.4462 4.15642V4.08983C7.44622 3.51128 7.44623 3.02866 7.40047 2.64148C7.35238 2.23467 7.24727 1.86179 6.98524 1.54251C6.90085 1.43969 6.80657 1.3454 6.70374 1.26101C6.38446 0.998987 6.01158 0.893872 5.60477 0.845785C5.2176 0.80002 4.73498 0.800033 4.15644 0.800049H4.15642ZM4.15642 8.55389H4.08983C3.51128 8.55388 3.02866 8.55386 2.64148 8.59963C2.23467 8.64772 1.86179 8.75283 1.54251 9.01486C1.43969 9.09925 1.3454 9.19353 1.26101 9.29636C0.998987 9.61564 0.893872 9.98852 0.845785 10.3953C0.80002 10.7825 0.800033 11.2651 0.800049 11.8437V11.8437V11.9103V11.9103C0.800033 12.4888 0.80002 12.9714 0.845785 13.3586C0.893872 13.7654 0.998987 14.1383 1.26101 14.4576C1.3454 14.5604 1.43969 14.6547 1.54251 14.7391C1.86179 15.0011 2.23467 15.1062 2.64148 15.1543C3.02866 15.2001 3.51128 15.2001 4.08983 15.2H4.15642C4.73497 15.2001 5.21759 15.2001 5.60477 15.1543C6.01158 15.1062 6.38446 15.0011 6.70374 14.7391C6.80657 14.6547 6.90085 14.5604 6.98524 14.4576C7.24727 14.1383 7.35238 13.7654 7.40047 13.3586C7.44623 12.9714 7.44622 12.4888 7.4462 11.9103V11.8437C7.44622 11.2651 7.44623 10.7825 7.40047 10.3953C7.35238 9.98852 7.24727 9.61564 6.98524 9.29636C6.90085 9.19353 6.80657 9.09925 6.70374 9.01486C6.38446 8.75283 6.01158 8.64772 5.60477 8.59963C5.21759 8.55386 4.73497 8.55388 4.15642 8.55389ZM11.9103 0.800049H11.8437H11.8437C11.2651 0.800033 10.7825 0.80002 10.3953 0.845785C9.98852 0.893872 9.61564 0.998987 9.29636 1.26101C9.19353 1.3454 9.09925 1.43969 9.01486 1.54251C8.75283 1.86179 8.64772 2.23467 8.59963 2.64148C8.55386 3.02866 8.55388 3.51128 8.55389 4.08983V4.15642C8.55388 4.73497 8.55386 5.21759 8.59963 5.60477C8.64772 6.01158 8.75283 6.38446 9.01486 6.70374C9.09925 6.80657 9.19353 6.90085 9.29636 6.98524C9.61564 7.24727 9.98852 7.35238 10.3953 7.40047C10.7825 7.44623 11.2651 7.44622 11.8437 7.4462H11.9103C12.4888 7.44622 12.9714 7.44623 13.3586 7.40047C13.7654 7.35238 14.1383 7.24727 14.4576 6.98524C14.5604 6.90085 14.6547 6.80657 14.7391 6.70374C15.0011 6.38446 15.1062 6.01158 15.1543 5.60477C15.2001 5.21759 15.2001 4.73497 15.2 4.15642V4.08983C15.2001 3.51128 15.2001 3.02866 15.1543 2.64148C15.1062 2.23467 15.0011 1.86179 14.7391 1.54251C14.6547 1.43969 14.5604 1.3454 14.4576 1.26101C14.1383 0.998987 13.7654 0.893872 13.3586 0.845785C12.9714 0.80002 12.4888 0.800033 11.9103 0.800049H11.9103ZM11.9103 8.55389H11.8437C11.2651 8.55388 10.7825 8.55386 10.3953 8.59963C9.98852 8.64772 9.61564 8.75283 9.29636 9.01486C9.19353 9.09925 9.09925 9.19353 9.01486 9.29636C8.75283 9.61564 8.64772 9.98852 8.59963 10.3953C8.55386 10.7825 8.55388 11.2651 8.55389 11.8437V11.9103C8.55388 12.4888 8.55386 12.9714 8.59963 13.3586C8.64772 13.7654 8.75283 14.1383 9.01486 14.4576C9.09925 14.5604 9.19353 14.6547 9.29636 14.7391C9.61564 15.0011 9.98852 15.1062 10.3953 15.1543C10.7825 15.2001 11.2651 15.2001 11.8437 15.2H11.9103C12.4888 15.2001 12.9714 15.2001 13.3586 15.1543C13.7654 15.1062 14.1383 15.0011 14.4576 14.7391C14.5604 14.6547 14.6547 14.5604 14.7391 14.4576C15.0011 14.1383 15.1062 13.7654 15.1543 13.3586C15.2001 12.9714 15.2001 12.4888 15.2 11.9103V11.8437C15.2001 11.2651 15.2001 10.7825 15.1543 10.3953C15.1062 9.98852 15.0011 9.61564 14.7391 9.29636C14.6547 9.19353 14.5604 9.09925 14.4576 9.01486C14.1383 8.75283 13.7654 8.64772 13.3586 8.59963C12.9714 8.55386 12.4888 8.55388 11.9103 8.55389Z" fill="url(#paint0_linear_205_30747)"/>
</g>
<defs>
<linearGradient id="paint0_linear_205_30747" x1="0.800049" y1="8.00005" x2="15.2" y2="8.00005" gradientUnits="userSpaceOnUse">
<stop stop-color="#CE80FF"/>
<stop offset="0.504032" stop-color="#80F0FF"/>
<stop offset="1" stop-color="#B1FF80"/>
</linearGradient>
</defs>
</svg>
