<svg width="25" height="25" viewBox="0 0 25 25" fill="none" xmlns="http://www.w3.org/2000/svg">
<path fill-rule="evenodd" clip-rule="evenodd" d="M8.28912 5.90347C8.82952 5.89343 9.36916 5.94884 9.89625 6.06847C10.34 6.16536 10.7614 6.34566 11.1379 6.59978C11.4856 6.85247 11.7608 7.1922 11.9357 7.58485C12.1367 8.06767 12.2337 8.58746 12.2203 9.1103C12.2431 9.68438 12.0965 10.2525 11.7987 10.7438C11.4854 11.2079 11.0524 11.5785 10.5455 11.8163C11.2334 12.0018 11.8325 12.4266 12.2352 13.0143C12.6217 13.637 12.816 14.3599 12.7937 15.0925C12.8064 15.6766 12.6857 16.2559 12.4406 16.7862C12.214 17.2489 11.8823 17.6521 11.472 17.9635C11.0496 18.2715 10.5742 18.4994 10.0695 18.6359C9.54611 18.7807 9.00542 18.8534 8.46237 18.8521H2.5V5.90347H8.28912ZM7.94509 11.1407C8.36969 11.1582 8.78766 11.031 9.13063 10.7801C9.29489 10.6339 9.42266 10.4513 9.50374 10.2469C9.58482 10.0424 9.61696 9.82189 9.59759 9.60283C9.60858 9.34698 9.55764 9.09226 9.44909 8.86032C9.35701 8.67565 9.21383 8.5213 9.03658 8.41563C8.85705 8.29932 8.65535 8.2215 8.44422 8.1871C8.21514 8.14273 7.98203 8.12254 7.74874 8.12688H5.20109V11.1522H7.94509V11.1407ZM8.09359 16.6534C8.35037 16.6569 8.60662 16.6292 8.85673 16.5709C9.08529 16.5204 9.30205 16.4266 9.49529 16.2945C9.6846 16.1625 9.83754 15.9849 9.93997 15.7781C10.0587 15.5143 10.1133 15.2262 10.0992 14.9374C10.125 14.6741 10.0901 14.4085 9.99727 14.1608C9.90446 13.9131 9.75617 13.6899 9.56377 13.5084C9.15596 13.2081 8.6562 13.0593 8.15052 13.0877H5.20109V16.6534H8.09359Z" fill="#F7F7F8"/>
<path fill-rule="evenodd" clip-rule="evenodd" d="M16.6407 16.6055C16.8527 16.802 17.1025 16.9534 17.3748 17.0504C17.6471 17.1474 17.9363 17.1881 18.2248 17.1699C18.6821 17.1814 19.1306 17.0423 19.5011 16.7738C19.8025 16.5779 20.0307 16.2878 20.1503 15.9488H22.3045C22.0749 16.914 21.5145 17.7681 20.7204 18.3628C19.9587 18.8684 19.0585 19.1245 18.1447 19.0954C17.4926 19.104 16.8453 18.9814 16.2414 18.7349C15.6952 18.5071 15.2053 18.1627 14.8059 17.7259C14.4081 17.2682 14.1024 16.7379 13.9058 16.1642C13.6851 15.5229 13.5771 14.8482 13.5865 14.1701C13.5825 13.5033 13.6942 12.8409 13.9165 12.2123C14.2153 11.328 14.7865 10.5611 15.5482 10.0216C16.3099 9.48203 17.2229 9.19768 18.1563 9.2093C18.8454 9.19489 19.5268 9.35616 20.1363 9.6779C20.6873 9.98002 21.1626 10.4031 21.5265 10.9154C21.8987 11.453 22.1655 12.0563 22.3127 12.6933C22.4741 13.3774 22.5317 14.0819 22.4835 14.7831H16.0674C16.0154 15.4419 16.2209 16.0952 16.6407 16.6055ZM19.4557 11.681C19.2761 11.5014 19.0602 11.3624 18.8224 11.2733C18.5846 11.1842 18.3304 11.1472 18.0771 11.1646C17.741 11.1518 17.4073 11.2262 17.1085 11.3807C16.8717 11.5111 16.6626 11.6866 16.4931 11.8972C16.3428 12.0947 16.2309 12.3185 16.1631 12.5572C16.1019 12.7563 16.0637 12.9616 16.0492 13.1694H20.0233C19.9887 12.6279 19.7914 12.1094 19.4573 11.6819L19.4557 11.681Z" fill="#F7F7F8"/>
<path d="M15.5369 6.76806H20.5166V8.04106H15.5369V6.76806Z" fill="#F7F7F8"/>
</svg>
