<svg width="65" height="66" viewBox="0 0 65 66" fill="none" xmlns="http://www.w3.org/2000/svg">
<rect y="0.5" width="65" height="65" rx="8" fill="#FB743E"/>
<path d="M32.5 51.5717C27.5391 51.5717 22.8759 49.6395 19.3677 46.1325C15.8608 42.6243 13.9286 37.9611 13.9286 33.0002C13.9286 28.0394 15.8608 23.3762 19.3677 19.8679C22.8759 16.361 27.5391 14.4288 32.5 14.4288C33.669 14.4288 34.6179 15.3765 34.6179 16.5467C34.6179 17.717 33.6703 18.6646 32.5 18.6646C24.5944 18.6646 18.1644 25.0959 18.1644 33.0002C18.1644 40.9045 24.5957 47.3358 32.5 47.3358C40.4043 47.3358 46.6016 41.136 46.8293 33.4289C46.8331 33.2864 46.8356 31.657 46.8356 31.5132C46.8356 30.3443 47.7833 29.3953 48.9535 29.3953C50.1238 29.3953 51.0714 30.343 51.0714 31.5132C51.0714 31.657 51.0702 33.2864 51.0663 33.4289C50.9582 38.2282 49.0387 42.7248 45.6323 46.1312C42.1241 49.6395 37.4609 51.5704 32.5 51.5704V51.5717Z" fill="white"/>
<path d="M45.2737 23.1249C44.4647 23.1249 43.7664 22.8323 43.1825 22.2485C42.5986 21.6646 42.3061 20.9676 42.3061 20.1573C42.3061 19.347 42.5986 18.6512 43.1825 18.0661C43.7664 17.4822 44.4634 17.1897 45.2737 17.1897C46.084 17.1897 46.7798 17.4822 47.3649 18.0661C47.9487 18.6512 48.2413 19.347 48.2413 20.1573C48.2413 20.9676 47.9487 21.6646 47.3649 22.2485C46.7798 22.8336 46.084 23.1249 45.2737 23.1249Z" fill="#4BFA7A"/>
</svg>
