<svg width="30" height="30" viewBox="0 0 30 30" fill="none" xmlns="http://www.w3.org/2000/svg">
<g id="Corner" clip-path="url(#clip0_345_27497)">
<g id="Subtract">
<mask id="path-1-inside-1_345_27497" fill="white">
<path fill-rule="evenodd" clip-rule="evenodd" d="M425 -439C425 -454.464 412.464 -467 397 -467H-585C-600.464 -467 -613 -454.464 -613 -439V179C-613 194.464 -600.464 207 -585 207H-28C-12.536 207 0 194.464 0 179V28C0 12.536 12.536 0 28 0H397C412.464 0 425 -12.536 425 -28V-439Z"/>
</mask>
<path fill-rule="evenodd" clip-rule="evenodd" d="M425 -439C425 -454.464 412.464 -467 397 -467H-585C-600.464 -467 -613 -454.464 -613 -439V179C-613 194.464 -600.464 207 -585 207H-28C-12.536 207 0 194.464 0 179V28C0 12.536 12.536 0 28 0H397C412.464 0 425 -12.536 425 -28V-439Z" fill="#242427"/>
<path d="M-585 -466H397V-468H-585V-466ZM-612 179V-439H-614V179H-612ZM-28 206H-585V208H-28V206ZM1 179V28H-1V179H1ZM28 1H397V-1H28V1ZM424 -439V-28H426V-439H424ZM397 1C413.016 1 426 -11.9837 426 -28H424C424 -13.0883 411.912 -1 397 -1V1ZM1 28C1 13.0883 13.0883 1 28 1V-1C11.9837 -1 -1 11.9837 -1 28H1ZM-28 208C-11.9837 208 1 195.016 1 179H-1C-1 193.912 -13.0883 206 -28 206V208ZM-614 179C-614 195.016 -601.016 208 -585 208V206C-599.912 206 -612 193.912 -612 179H-614ZM397 -466C411.912 -466 424 -453.912 424 -439H426C426 -455.016 413.016 -468 397 -468V-466ZM-585 -468C-601.016 -468 -614 -455.016 -614 -439H-612C-612 -453.912 -599.912 -466 -585 -466V-468Z" fill="url(#paint0_linear_345_27497)" mask="url(#path-1-inside-1_345_27497)"/>
</g>
</g>
<defs>
<linearGradient id="paint0_linear_345_27497" x1="-613" y1="-459.341" x2="-535.108" y2="304.86" gradientUnits="userSpaceOnUse">
<stop stop-color="#4F4F4F"/>
<stop offset="0.252957" stop-opacity="0.3"/>
<stop offset="0.747069" stop-opacity="0.3"/>
<stop offset="1" stop-color="#4F4F4F"/>
</linearGradient>
<clipPath id="clip0_345_27497">
<rect width="30" height="30" fill="white"/>
</clipPath>
</defs>
</svg>
