<svg width="25" height="25" viewBox="0 0 25 25" fill="none" xmlns="http://www.w3.org/2000/svg">
<path fill-rule="evenodd" clip-rule="evenodd" d="M12.5 2.5C6.97584 2.5 2.5 6.97909 2.5 12.4982C2.5 17.7445 6.54747 22.0507 11.6888 22.4639V22.5H12.5C18.0242 22.5 22.5 18.0209 22.5 12.5018C22.5 6.98312 18.0246 2.5 12.5 2.5ZM14.7097 20.5835C14.0823 20.7546 13.4256 20.8546 12.7487 20.8744H12.5C11.3713 20.8744 10.2945 20.6508 9.31146 20.2456C10.2632 16.8162 12.8434 14.3598 15.7966 13.2622C16.3062 15.7321 15.9363 18.3789 14.7097 20.5835ZM15.3469 11.7C11.9763 12.914 9.03261 15.6486 7.8498 19.4652C5.60282 17.9623 4.12229 15.402 4.12229 12.4982C4.12229 11.4684 4.30828 10.4819 4.64855 9.57044C5.66277 10.0758 6.74726 10.4332 7.86253 10.632C9.28321 10.8925 10.7388 10.8838 12.1554 10.6284C12.9617 10.4829 13.7489 10.251 14.5036 9.94203C14.8396 10.5005 15.1222 11.089 15.3469 11.7ZM17.3603 12.8157C17.8473 15.0639 17.6996 17.4464 16.9223 19.617C19.2285 18.1808 20.7855 15.6551 20.8738 12.7616C19.7273 12.5537 18.5323 12.5791 17.3603 12.8157ZM20.761 11.101C19.4914 10.9226 18.1858 10.9806 16.9104 11.253C16.6592 10.5484 16.3422 9.86951 15.9644 9.22493C17.0123 8.61975 17.9692 7.85807 18.7917 6.96992C19.7978 8.11378 20.4971 9.53386 20.761 11.101ZM8.14915 9.03553C7.1803 8.86304 6.23925 8.55209 5.36105 8.1132C6.11634 6.88677 7.17893 5.8695 8.44163 5.16894L8.45137 5.172L8.45173 5.17212L8.45178 5.17213L8.4518 5.17214C8.58936 5.21543 8.72069 5.25676 8.84715 5.30215C8.89381 5.31997 8.93949 5.33729 8.98415 5.35422L8.98485 5.35448L8.98489 5.3545L8.98491 5.35451C9.18998 5.43226 9.37309 5.50169 9.52606 5.5726L9.56971 5.59443L9.58012 5.59926C9.67671 5.64419 9.8159 5.71053 9.94134 5.77034C10.008 5.80216 10.0708 5.83209 10.1213 5.85597L10.1232 5.857C10.1653 5.87966 10.2008 5.89869 10.2338 5.91838C10.2607 5.93581 10.2847 5.94994 10.2976 5.95747C10.3211 5.97125 10.3453 5.98488 10.3652 5.99597C10.3822 6.00544 10.399 6.01466 10.4115 6.02153L10.4178 6.025L10.4311 6.03238L10.4328 6.03334C10.4514 6.04406 10.474 6.05694 10.4997 6.07163C10.5549 6.10309 10.6246 6.14288 10.7011 6.18769C10.7551 6.21931 10.8056 6.24947 10.8468 6.275C10.8774 6.29402 10.8941 6.30505 10.9004 6.30925L10.9008 6.3095C10.9034 6.31123 10.904 6.31163 10.9029 6.31083L10.9385 6.33778L10.978 6.36125C11.0382 6.39701 11.0976 6.43809 11.1717 6.48935L11.1717 6.48936L11.1717 6.48938L11.1721 6.48959C11.2059 6.513 11.2428 6.53853 11.2842 6.56666L11.3124 6.58575L11.3363 6.59925C11.3363 6.59928 11.3367 6.59957 11.3376 6.60015C11.3381 6.60053 11.3389 6.60103 11.3398 6.60166C11.3462 6.60599 11.3619 6.61652 11.3891 6.63603C11.431 6.66603 11.4816 6.70369 11.5373 6.74556L11.6032 6.79525C11.6371 6.82084 11.6715 6.84678 11.7007 6.86866C11.7394 6.89756 11.7866 6.93266 11.8293 6.96222C12.4518 7.43829 13.0208 7.9819 13.5273 8.58108C12.9884 8.77828 12.4329 8.9301 11.8673 9.03222C10.6343 9.2545 9.375 9.2605 8.1534 9.03631L8.15128 9.03591L8.14915 9.03553ZM12.5 4.122C14.4229 4.122 16.1944 4.77055 17.6082 5.86048C16.867 6.66246 15.9989 7.34547 15.0485 7.87997C14.395 7.0494 13.639 6.30161 12.7961 5.65953L12.7757 5.64403L12.7546 5.62994L12.7488 5.62594C12.7443 5.62276 12.7383 5.61847 12.7306 5.61288C12.7151 5.60158 12.6958 5.5873 12.6727 5.56999C12.6465 5.55036 12.6201 5.53051 12.5919 5.50918L12.5918 5.50914L12.586 5.50477C12.5631 5.48746 12.5389 5.46916 12.5123 5.4492C12.4549 5.40601 12.3919 5.35904 12.334 5.31757C12.2936 5.28858 12.2354 5.24759 12.1761 5.21144L12.1384 5.18539L12.1382 5.18524L12.1382 5.18523C12.061 5.13175 11.9451 5.05151 11.8397 4.98679C11.7412 4.91776 11.6082 4.83913 11.521 4.78807C11.4366 4.73864 11.3457 4.68676 11.2892 4.65455L11.2888 4.6543L11.2461 4.62986C11.2357 4.62379 11.2266 4.61875 11.2229 4.61667L11.2229 4.61667L11.2227 4.61655L11.2222 4.61628L11.2003 4.60416L11.1929 4.60008C11.1803 4.59315 11.1677 4.58621 11.1546 4.57892C11.1396 4.57058 11.1275 4.5637 11.1186 4.55855L11.1125 4.55428L11.091 4.54113C11.0131 4.49352 10.9319 4.45005 10.8878 4.42645L10.8869 4.42594L10.8716 4.41772L10.8527 4.40758L10.8334 4.39844C10.7947 4.38017 10.7374 4.35291 10.6725 4.32193C11.2607 4.19104 11.8723 4.122 12.5 4.122Z" fill="#F7F7F8"/>
</svg>
