<svg width="24" height="36" viewBox="0 0 24 36" fill="none" xmlns="http://www.w3.org/2000/svg">
<g id="Figma logo 1" clip-path="url(#clip0_204_22972)">
<g id="Layer 1">
<path id="Vector" d="M17.504 13.6864H10.9501V0.857834H17.504C21.0414 0.857834 23.9187 3.73513 23.9187 7.27251C23.9187 10.8099 21.0414 13.6872 17.504 13.6872M13.0511 11.5861H17.504C19.8828 11.5861 21.8176 9.65128 21.8176 7.27328C21.8176 4.89528 19.8828 2.95964 17.504 2.95964H13.0511V11.5861Z" fill="#F7F7F8"/>
<path id="Vector_2" d="M13.0512 13.6863H6.49805C2.96067 13.6863 0.083374 10.809 0.083374 7.27244C0.083374 3.73582 2.96067 0.857758 6.49805 0.857758H13.052V13.6863H13.0512ZM6.49805 2.9588C4.11928 2.9588 2.18442 4.89367 2.18442 7.27244C2.18442 9.65121 4.11928 11.5861 6.49805 11.5861H10.9509V2.9588H6.49805Z" fill="#F7F7F8"/>
<path id="Vector_3" d="M13.0511 24.4147H6.49793C2.96055 24.4147 0.083252 21.5374 0.083252 18.0001C0.083252 14.4627 2.96055 11.5854 6.49793 11.5854H13.0519V24.414L13.0511 24.4147ZM6.49793 13.6872C4.11916 13.6872 2.18429 15.622 2.18429 18.0008C2.18429 20.3796 4.11916 22.3145 6.49793 22.3145H10.9508V13.688H6.49793V13.6872Z" fill="#F7F7F8"/>
<path id="Vector_4" d="M6.53255 35.1423C2.97593 35.1423 0.083252 32.265 0.083252 28.7276C0.083252 25.1902 2.96055 22.3129 6.49793 22.3129H13.0519V28.6576C13.0519 32.2327 10.1276 35.1415 6.53255 35.1415M6.49793 24.414C4.11916 24.414 2.18429 26.3488 2.18429 28.7276C2.18429 31.1064 4.13455 33.0412 6.53255 33.0412C8.93055 33.0412 10.9508 31.0748 10.9508 28.6583V24.4147H6.49793V24.414Z" fill="#F7F7F8"/>
<path id="Vector_5" d="M17.504 24.4147H17.3648C13.8281 24.4147 10.9501 21.5374 10.9501 18.0008C10.9501 14.4642 13.8274 11.5861 17.3648 11.5861H17.504C21.0406 11.5861 23.9187 14.4634 23.9187 18.0008C23.9187 21.5382 21.0414 24.4147 17.504 24.4147ZM17.3648 13.6872C14.986 13.6872 13.0511 15.622 13.0511 18.0008C13.0511 20.3796 14.986 22.3144 17.3648 22.3144H17.504C19.8828 22.3144 21.8176 20.3796 21.8176 18.0008C21.8176 15.622 19.8828 13.6872 17.504 13.6872H17.3648Z" fill="#F7F7F8"/>
</g>
</g>
<defs>
<clipPath id="clip0_204_22972">
<rect width="23.8354" height="34.2844" fill="white" transform="translate(0.0825195 0.857742)"/>
</clipPath>
</defs>
</svg>
