<svg width="25" height="25" viewBox="0 0 25 25" fill="none" xmlns="http://www.w3.org/2000/svg">
<path d="M12.7002 10.6818V14.5545H18.082C17.8457 15.8 17.1365 16.8546 16.0729 17.5636L19.3183 20.0818C21.2092 18.3365 22.3001 15.7728 22.3001 12.7273C22.3001 12.0183 22.2365 11.3364 22.1183 10.6819L12.7002 10.6818Z" fill="white"/>
<path d="M7.09575 14.4034L6.36378 14.9637L3.77283 16.9818C5.41828 20.2454 8.79075 22.5 12.6998 22.5C15.3997 22.5 17.6634 21.6091 19.3179 20.0819L16.0725 17.5636C15.1816 18.1636 14.0452 18.5273 12.6998 18.5273C10.0998 18.5273 7.8908 16.7728 7.09984 14.4091L7.09575 14.4034Z" fill="white"/>
<path d="M3.77284 8.01819C3.09106 9.36359 2.7002 10.8818 2.7002 12.4999C2.7002 14.1181 3.09106 15.6363 3.77284 16.9817C3.77284 16.9907 7.10017 14.3999 7.10017 14.3999C6.90018 13.7999 6.78196 13.1636 6.78196 12.4998C6.78196 11.8361 6.90018 11.1998 7.10017 10.5998L3.77284 8.01819Z" fill="white"/>
<path d="M12.7 6.48182C14.1728 6.48182 15.4818 6.99089 16.5273 7.97272L19.3909 5.10912C17.6545 3.49097 15.4001 2.5 12.7 2.5C8.79096 2.5 5.41828 4.74545 3.77283 8.01819L7.10005 10.6C7.89092 8.23635 10.1 6.48182 12.7 6.48182Z" fill="white"/>
</svg>
