<svg width="44" height="44" viewBox="0 0 44 44" fill="none" xmlns="http://www.w3.org/2000/svg">
<path d="M13.3335 18.4757C13 19.337 13 20.3113 13 22.2597C13 25.6242 13 27.3065 13.7861 28.5296C14.177 29.1377 14.6966 29.654 15.3087 30.0424C16.0399 30.5066 16.9343 30.6949 18.25 30.7714V26.6373C18.25 24.5662 19.9289 22.8873 22 22.8873C24.0711 22.8873 25.75 24.5662 25.75 26.6373V30.7714C27.0657 30.6949 27.9601 30.5066 28.6913 30.0424C29.3034 29.654 29.823 29.1377 30.2139 28.5296C31 27.3065 31 25.6242 31 22.2597C31 20.3113 31 19.337 30.6665 18.4757C30.4983 18.0414 30.2696 17.6328 29.987 17.2618C29.4265 16.5259 28.5936 16.012 26.9278 14.9842L26.7475 14.8729C24.7009 13.6102 23.6775 12.9788 22.5545 12.8543C22.186 12.8134 21.814 12.8134 21.4455 12.8543C20.3225 12.9788 19.2991 13.6102 17.2525 14.8729L17.0722 14.9842C15.4064 16.012 14.5735 16.5259 14.013 17.2618C13.7304 17.6328 13.5017 18.0414 13.3335 18.4757Z" fill="url(#paint0_linear_217_21561)"/>
<path d="M24.25 30.817V26.6373C24.25 25.3947 23.2426 24.3873 22 24.3873C20.7574 24.3873 19.75 25.3947 19.75 26.6373V30.817C20.3095 30.8236 20.9289 30.8236 21.6184 30.8236H22.3816C23.0711 30.8236 23.6905 30.8236 24.25 30.817Z" fill="url(#paint1_linear_217_21561)"/>
<defs>
<linearGradient id="paint0_linear_217_21561" x1="13" y1="21.8236" x2="31" y2="21.8236" gradientUnits="userSpaceOnUse">
<stop stop-color="#CE80FF"/>
<stop offset="0.504032" stop-color="#80F0FF"/>
<stop offset="1" stop-color="#B1FF80"/>
</linearGradient>
<linearGradient id="paint1_linear_217_21561" x1="13" y1="21.8236" x2="31" y2="21.8236" gradientUnits="userSpaceOnUse">
<stop stop-color="#CE80FF"/>
<stop offset="0.504032" stop-color="#80F0FF"/>
<stop offset="1" stop-color="#B1FF80"/>
</linearGradient>
</defs>
</svg>
