<svg width="44" height="44" viewBox="0 0 44 44" fill="none" xmlns="http://www.w3.org/2000/svg">
<g filter="url(#filter0_d_2_3079)">
<path fill-rule="evenodd" clip-rule="evenodd" d="M16.4502 21.7237C16.2736 21.3405 15.818 21.1692 15.4289 21.3411C15.0376 21.5139 14.8618 21.9683 15.0362 22.356L15.0407 22.3658C15.0382 22.3603 15.0362 22.356 15.0362 22.356L15.0371 22.3581L15.0382 22.3603L15.0407 22.3658L15.0473 22.3799C15.0525 22.3908 15.0592 22.4044 15.0674 22.4207C15.0838 22.4531 15.1065 22.496 15.1359 22.5474C15.1946 22.6498 15.2807 22.7871 15.398 22.9427C15.6315 23.2525 15.9963 23.6447 16.5228 23.9731C17.0618 24.3092 17.621 24.4633 18.0311 24.5356C18.2389 24.5723 18.4161 24.5893 18.5445 24.5971C18.6089 24.6011 18.6616 24.6027 18.7004 24.6034C18.7198 24.6037 18.7357 24.6038 18.748 24.6037L18.7637 24.6036L18.7693 24.6035L18.7716 24.6035L18.7731 24.6034C19.2014 24.594 19.5413 24.2424 19.5318 23.818C19.5224 23.3949 19.1697 23.0593 18.7433 23.0665L18.7262 23.0663C18.7089 23.0661 18.6795 23.0652 18.6401 23.0628C18.5608 23.058 18.4433 23.0469 18.303 23.0222C18.0168 22.9717 17.6657 22.8695 17.349 22.672C17.0198 22.4667 16.7889 22.2192 16.6408 22.0227C16.5672 21.9251 16.516 21.8426 16.485 21.7886C16.4696 21.7616 16.4594 21.7421 16.4541 21.7317L16.4502 21.7237ZM18.7433 23.0665L18.7408 23.0665L18.7396 23.0666" fill="#F7F7F8"/>
<path d="M19.6908 13.3513C20.4858 12.0332 22.2038 11.6061 23.528 12.3976C24.2151 12.8083 24.6612 13.4664 24.8203 14.1888L24.9825 14.2733C26.7222 15.18 27.7922 16.2124 28.9291 17.9677C29.7251 19.1967 29.9973 20.6938 29.9999 22.178C30.0025 23.668 29.7336 25.2099 29.3843 26.5873C29.0342 27.9685 28.5968 29.2091 28.248 30.1029C28.1957 30.237 28.1453 30.3634 28.0974 30.4815H29.2322C29.6535 30.4815 29.9949 30.8214 29.9949 31.2407C29.9949 31.6601 29.6535 32 29.2322 32H19.8212C19.4 32 19.0585 31.6601 19.0585 31.2407C19.0585 30.8214 19.4 30.4815 19.8212 30.4815H26.4449C26.545 30.2504 26.6771 29.9348 26.8261 29.553C27.1596 28.6985 27.5748 27.5194 27.9053 26.2157C28.2368 24.9083 28.4768 23.5 28.4745 22.1806C28.4721 20.8553 28.2255 19.6837 27.647 18.7906C26.728 17.3716 25.917 16.5514 24.6772 15.8385C24.624 15.9675 24.5604 16.0942 24.4861 16.2174L23.9749 17.065C24.8583 18.6241 24.9839 20.5684 24.1778 22.2866C23.6144 23.4875 22.1232 23.9565 20.9718 23.2684L15.0904 19.7532C13.939 19.065 13.6539 17.5343 14.4538 16.4748C15.5985 14.9586 17.3818 14.1549 19.1798 14.1985L19.6908 13.3513Z" fill="#F7F7F8"/>
</g>
<defs>
<filter id="filter0_d_2_3079" x="7.33321" y="5.33333" width="29.3333" height="33.3333" filterUnits="userSpaceOnUse" color-interpolation-filters="sRGB">
<feFlood flood-opacity="0" result="BackgroundImageFix"/>
<feColorMatrix in="SourceAlpha" type="matrix" values="0 0 0 0 0 0 0 0 0 0 0 0 0 0 0 0 0 0 127 0" result="hardAlpha"/>
<feOffset/>
<feGaussianBlur stdDeviation="3.33333"/>
<feComposite in2="hardAlpha" operator="out"/>
<feColorMatrix type="matrix" values="0 0 0 0 1 0 0 0 0 1 0 0 0 0 1 0 0 0 0.5 0"/>
<feBlend mode="normal" in2="BackgroundImageFix" result="effect1_dropShadow_2_3079"/>
<feBlend mode="normal" in="SourceGraphic" in2="effect1_dropShadow_2_3079" result="shape"/>
</filter>
</defs>
</svg>
