<svg width="25" height="25" viewBox="0 0 25 25" fill="none" xmlns="http://www.w3.org/2000/svg">
<path d="M21.5 4.82353V20.1765C21.5 20.5275 21.3606 20.8641 21.1123 21.1123C20.8641 21.3606 20.5275 21.5 20.1765 21.5H4.82353C4.47251 21.5 4.13586 21.3606 3.88765 21.1123C3.63944 20.8641 3.5 20.5275 3.5 20.1765V4.82353C3.5 4.47251 3.63944 4.13586 3.88765 3.88765C4.13586 3.63944 4.47251 3.5 4.82353 3.5H20.1765C20.5275 3.5 20.8641 3.63944 21.1123 3.88765C21.3606 4.13586 21.5 4.47251 21.5 4.82353ZM8.79412 10.3824H6.14706V18.8529H8.79412V10.3824ZM9.03235 7.47059C9.03375 7.27036 8.99569 7.07182 8.92035 6.8863C8.84502 6.70078 8.73387 6.53191 8.59328 6.38935C8.45268 6.24678 8.28537 6.1333 8.10091 6.0554C7.91646 5.97749 7.71846 5.93668 7.51824 5.93529H7.47059C7.0634 5.93529 6.67289 6.09705 6.38497 6.38497C6.09705 6.67289 5.93529 7.0634 5.93529 7.47059C5.93529 7.87777 6.09705 8.26828 6.38497 8.55621C6.67289 8.84413 7.0634 9.00588 7.47059 9.00588C7.67083 9.01081 7.87008 8.97623 8.05696 8.90413C8.24383 8.83202 8.41467 8.7238 8.5597 8.58565C8.70474 8.44749 8.82113 8.28212 8.90223 8.09897C8.98333 7.91582 9.02755 7.71848 9.03235 7.51824V7.47059ZM18.8529 13.7071C18.8529 11.1606 17.2329 10.1706 15.6235 10.1706C15.0966 10.1442 14.5719 10.2564 14.1019 10.4961C13.6318 10.7358 13.2328 11.0945 12.9447 11.5365H12.8706V10.3824H10.3824V18.8529H13.0294V14.3476C12.9911 13.8862 13.1365 13.4283 13.4339 13.0735C13.7313 12.7186 14.1567 12.4954 14.6176 12.4524H14.7182C15.56 12.4524 16.1847 12.9818 16.1847 14.3159V18.8529H18.8318L18.8529 13.7071Z" fill="#F7F7F8"/>
</svg>
