<svg width="65" height="66" viewBox="0 0 65 66" fill="none" xmlns="http://www.w3.org/2000/svg">
<rect y="0.75" width="65" height="65" rx="8" fill="#15A959"/>
<path d="M29.88 28.3963C28.7047 28.3963 27.7518 29.359 27.7518 30.5464V32.6966H32.0092V30.5464C32.0083 29.359 31.0554 28.3963 29.88 28.3963Z" fill="white"/>
<path d="M33.0249 30.5483C33.0249 31.7357 33.9778 32.6975 35.1522 32.6975H37.2796V28.3981H35.1531C33.9778 28.3981 33.0249 29.3608 33.0249 30.5483Z" fill="white"/>
<path d="M33.0258 22.9963V25.1455C33.0258 26.333 33.9787 27.2948 35.1532 27.2948C36.3276 27.2948 37.2805 26.3321 37.2805 25.1455V22.9963H33.0258Z" fill="white"/>
<path d="M29.8509 22.999H27.7191V27.2984H29.8509C31.0236 27.2984 31.9748 26.3375 31.9748 25.1527V25.1447C31.9748 23.9599 31.0236 22.999 29.8509 22.999Z" fill="white"/>
<path d="M14.6564 39.158V40.0747H13.1185V41.832C13.1185 42.0425 13.1754 42.2089 13.291 42.331C13.4058 42.4531 13.5643 42.5142 13.7675 42.5142C14.0416 42.5142 14.3385 42.431 14.6573 42.2655V43.2371C14.2343 43.4149 13.8244 43.5034 13.4277 43.5034C12.9092 43.5034 12.5063 43.368 12.2208 43.0973C11.9344 42.8265 11.7916 42.4283 11.7916 41.9045V40.0747H11.1882V39.8128L12.9538 37.8166H13.1194V39.158H14.6564Z" fill="white"/>
<path d="M16.6873 37.112V39.7815H16.7057C17.0752 39.3055 17.521 39.0675 18.0421 39.0675C18.4923 39.0675 18.8628 39.2117 19.1536 39.4993C19.4443 39.7877 19.5897 40.1877 19.5897 40.7V43.4217H18.262V40.984C18.262 40.3629 18.0343 40.0523 17.578 40.0523C17.2767 40.0523 16.9807 40.2682 16.6881 40.6991V43.4217H15.3595V37.112H16.6873Z" fill="white"/>
<path d="M23.5919 43.4224V42.8128C23.2013 43.2738 22.7468 43.5038 22.2283 43.5038C21.7693 43.5038 21.3971 43.3605 21.1107 43.0747C20.8243 42.7889 20.6816 42.3925 20.6816 41.8873V39.1584H22.0093V41.7926C22.0093 42.3341 22.2309 42.6049 22.6758 42.6049C22.9263 42.6049 23.14 42.5066 23.3178 42.3093C23.4947 42.112 23.584 41.9669 23.584 41.874V39.1584H24.9205V43.4224H23.5919Z" fill="white"/>
<path d="M28.1943 39.0673C28.8556 39.0673 29.417 39.2629 29.8777 39.6548C30.3383 40.0468 30.5687 40.5928 30.5687 41.2918C30.5687 41.9943 30.3348 42.5385 29.8663 42.9243C29.3986 43.3101 28.8407 43.503 28.1943 43.503C27.4937 43.503 26.9209 43.2968 26.4751 42.8854C26.0293 42.4739 25.8069 41.9395 25.8069 41.2829C25.8069 40.614 26.0337 40.0769 26.4882 39.6734C26.9428 39.2691 27.5112 39.0673 28.1943 39.0673ZM28.1943 42.7075C28.8293 42.7075 29.1463 42.2235 29.1463 41.2555C29.1463 40.33 28.8293 39.8663 28.1943 39.8663C27.8904 39.8663 27.6522 39.9884 27.4814 40.2326C27.3098 40.4768 27.2239 40.8264 27.2239 41.282C27.2239 42.2332 27.5471 42.7075 28.1943 42.7075Z" fill="white"/>
<path d="M35.1469 42.2558V43.2176C34.6284 43.407 34.1528 43.5025 33.7202 43.5025C32.9783 43.5025 32.3845 43.3017 31.9405 42.8991C31.4965 42.4965 31.274 41.9638 31.274 41.3011C31.274 40.6534 31.4982 40.1189 31.9466 39.6986C32.395 39.2784 32.967 39.0678 33.6615 39.0678C34.1082 39.0678 34.5828 39.1616 35.0829 39.3474V40.3455C34.7168 40.1561 34.356 40.0605 34.0013 40.0605C33.6046 40.0605 33.2875 40.172 33.0493 40.3959C32.8111 40.6189 32.6919 40.9179 32.6919 41.2913C32.6919 41.6683 32.8084 41.9727 33.0405 42.2027C33.2735 42.4337 33.5783 42.5487 33.9575 42.5487C34.2369 42.5496 34.6336 42.4514 35.1469 42.2558Z" fill="white"/>
<path d="M38.9389 39.3832V40.3362C38.4318 40.0229 37.9623 39.8663 37.5305 39.8663C37.2117 39.8663 37.0523 39.976 37.0523 40.1964C37.0523 40.2539 37.0856 40.3105 37.1531 40.3654C37.2205 40.4211 37.4771 40.5388 37.9247 40.7184C38.3713 40.898 38.6875 41.106 38.8723 41.3413C39.0571 41.5767 39.1491 41.8342 39.1491 42.1147C39.1491 42.558 39.0002 42.8995 38.7015 43.1411C38.4037 43.3826 37.979 43.503 37.4272 43.503C36.8605 43.503 36.3569 43.3994 35.9164 43.1915V42.2474C36.4585 42.4881 36.9131 42.6084 37.2801 42.6084C37.7092 42.6084 37.9238 42.5031 37.9238 42.2934C37.9238 42.212 37.8835 42.1359 37.8047 42.0633C37.725 41.9917 37.4596 41.866 37.0068 41.6873C36.554 41.5086 36.2448 41.3121 36.0776 41.098C35.9103 40.8839 35.8271 40.6458 35.8271 40.3831C35.8271 39.9946 35.9874 39.6778 36.3079 39.4336C36.6285 39.1894 37.0506 39.0673 37.5752 39.0673C38.0788 39.0673 38.5334 39.1726 38.9389 39.3832Z" fill="white"/>
<path d="M39.8977 37.7714C39.8977 37.5671 39.9696 37.3919 40.1123 37.2476C40.2551 37.1034 40.4267 37.0308 40.6264 37.0308C40.8287 37.0308 41.0021 37.1034 41.1449 37.2476C41.2877 37.3919 41.3595 37.5671 41.3595 37.7714C41.3595 37.9732 41.2877 38.1475 41.1449 38.2935C41.0021 38.4395 40.8287 38.5129 40.6264 38.5129C40.4267 38.5129 40.2551 38.4404 40.1123 38.2935C39.9696 38.1466 39.8977 37.9732 39.8977 37.7714ZM41.2973 43.422H39.9696V39.158H41.2973V43.422Z" fill="white"/>
<path d="M42.3144 42.699C42.3144 42.4796 42.3923 42.2903 42.5491 42.1319C42.7059 41.9735 42.8924 41.8947 43.1105 41.8947C43.3312 41.8947 43.5195 41.9735 43.6763 42.1319C43.8331 42.2903 43.911 42.4787 43.911 42.699C43.911 42.922 43.8331 43.1114 43.6763 43.268C43.5195 43.4246 43.3312 43.5025 43.1105 43.5025C42.8933 43.5025 42.7059 43.4237 42.5491 43.268C42.3932 43.1114 42.3144 42.922 42.3144 42.699Z" fill="white"/>
<path d="M46.3251 43.5038L44.3737 39.1584H45.797L46.6912 41.5068L47.602 39.1584H49.0095L47.0669 43.5038H46.3251Z" fill="white"/>
<path d="M50.9011 39.1576V39.7628C51.2917 39.2991 51.7489 39.0673 52.2735 39.0673C52.7114 39.0673 53.0775 39.2089 53.3709 39.492C53.6643 39.7752 53.8115 40.1804 53.8115 40.7087V43.4216H52.4837V40.821C52.4837 40.2512 52.2648 39.9663 51.8269 39.9663C51.5142 39.9663 51.205 40.2017 50.9011 40.6706V43.4216H49.5734V39.1576H50.9011Z" fill="white"/>
</svg>
