<svg width="65" height="66" viewBox="0 0 65 66" fill="none" xmlns="http://www.w3.org/2000/svg">
<rect y="0.25" width="65" height="65" rx="8" fill="#1E3768"/>
<g clip-path="url(#clip0_2_2354)">
<path d="M26.3537 37.832V37.837C27.1876 37.837 28.0165 37.842 28.8503 37.837C29.1699 37.837 29.3297 37.6372 29.2598 37.3326C29.1999 37.073 29.0001 37.043 28.7754 37.048C27.1726 37.053 25.5647 37.053 23.9619 37.053C23.897 37.053 23.8271 37.048 23.7622 37.063C23.5574 37.1129 23.4476 37.2428 23.4476 37.4525C23.4526 37.6522 23.5674 37.7771 23.7622 37.817C23.842 37.837 23.9269 37.827 24.0118 37.827C24.7908 37.832 25.5747 37.832 26.3537 37.832Z" fill="#F8901F"/>
<path d="M21.2905 37.827C21.7149 37.827 22.1393 37.832 22.5638 37.827C22.8184 37.822 22.9632 37.6872 22.9682 37.4575C22.9732 37.2428 22.8134 37.063 22.5787 37.058C21.7299 37.053 20.881 37.053 20.0321 37.058C19.7825 37.058 19.6377 37.2328 19.6477 37.4824C19.6576 37.7121 19.7775 37.822 20.0421 37.827C20.4566 37.832 20.876 37.827 21.2905 37.827Z" fill="#F8901F"/>
<path d="M17.9349 37.827C18.2196 37.827 18.4992 37.832 18.7838 37.827C19.0185 37.822 19.1583 37.6772 19.1683 37.4575C19.1733 37.2278 19.0285 37.063 18.7838 37.063C18.2246 37.058 17.6703 37.058 17.111 37.063C16.8614 37.068 16.7166 37.2178 16.7166 37.4475C16.7166 37.6772 16.8614 37.822 17.116 37.827C17.3857 37.832 17.6603 37.827 17.9349 37.827Z" fill="#F8901F"/>
<path d="M15.3983 37.822C15.5531 37.822 15.7129 37.832 15.8677 37.822C16.0774 37.807 16.2272 37.6472 16.2172 37.4475C16.2073 37.2328 16.1024 37.073 15.8777 37.058C15.5631 37.043 15.2485 37.043 14.934 37.063C14.7292 37.073 14.5994 37.2528 14.6094 37.4625C14.6244 37.6722 14.7342 37.802 14.9439 37.822C15.0987 37.832 15.2485 37.822 15.3983 37.822Z" fill="#F8901F"/>
<path d="M13.4909 37.827C13.5558 37.827 13.6207 37.832 13.6906 37.827C13.9403 37.817 14.0851 37.6772 14.0851 37.4475C14.0851 37.2128 13.9503 37.073 13.7006 37.058C13.5708 37.053 13.436 37.053 13.3061 37.058C13.0615 37.073 12.9166 37.2228 12.9166 37.4475C12.9166 37.6722 13.0615 37.807 13.3161 37.822C13.376 37.827 13.431 37.827 13.4909 37.827Z" fill="#F8901F"/>
<path d="M12.0328 37.832C12.2725 37.832 12.4273 37.6822 12.4273 37.4525C12.4273 37.2178 12.2775 37.063 12.0478 37.058C11.8181 37.053 11.6134 37.2278 11.6084 37.4375C11.6034 37.6322 11.8131 37.832 12.0328 37.832Z" fill="#F8901F"/>
<path d="M26.3537 37.832C25.5697 37.832 24.7908 37.832 24.0068 37.832C23.9219 37.832 23.8371 37.837 23.7572 37.822C23.5674 37.782 23.4476 37.6572 23.4426 37.4575C23.4376 37.2478 23.5524 37.1129 23.7572 37.068C23.8221 37.053 23.892 37.058 23.9569 37.058C25.5597 37.058 27.1676 37.053 28.7705 37.053C28.9952 37.053 29.1949 37.083 29.2548 37.3376C29.3247 37.6422 29.1649 37.842 28.8454 37.842C28.0115 37.847 27.1826 37.842 26.3487 37.842C26.3537 37.837 26.3537 37.832 26.3537 37.832Z" fill="#F8901F"/>
<path d="M21.2905 37.827C20.876 37.827 20.4566 37.832 20.0421 37.827C19.7775 37.822 19.6576 37.7121 19.6477 37.4824C19.6377 37.2378 19.7825 37.063 20.0321 37.058C20.881 37.048 21.7299 37.048 22.5787 37.058C22.8134 37.058 22.9732 37.2428 22.9682 37.4575C22.9632 37.6872 22.8184 37.827 22.5638 37.827C22.1393 37.832 21.7149 37.827 21.2905 37.827Z" fill="#F8901F"/>
<path d="M17.9349 37.827C17.6603 37.827 17.3857 37.832 17.111 37.827C16.8614 37.822 16.7116 37.6772 16.7116 37.4475C16.7116 37.2178 16.8614 37.063 17.106 37.063C17.6653 37.058 18.2196 37.058 18.7788 37.063C19.0235 37.068 19.1683 37.2278 19.1633 37.4575C19.1583 37.6772 19.0185 37.822 18.7788 37.827C18.5042 37.832 18.2196 37.827 17.9349 37.827Z" fill="#F8901F"/>
<path d="M15.3983 37.822C15.2485 37.822 15.0987 37.832 14.9539 37.822C14.7392 37.802 14.6294 37.6722 14.6194 37.4625C14.6044 37.2528 14.7392 37.078 14.9439 37.063C15.2585 37.048 15.5731 37.043 15.8877 37.058C16.1124 37.068 16.2172 37.2278 16.2272 37.4475C16.2372 37.6472 16.0874 37.807 15.8777 37.822C15.7129 37.832 15.5581 37.827 15.3983 37.822Z" fill="#F8901F"/>
<path d="M13.4909 37.827C13.431 37.827 13.376 37.827 13.3161 37.827C13.0615 37.812 12.9166 37.6772 12.9166 37.4525C12.9166 37.2278 13.0615 37.073 13.3061 37.063C13.436 37.058 13.5708 37.058 13.7006 37.063C13.9503 37.073 14.0851 37.2178 14.0851 37.4525C14.0851 37.6822 13.9403 37.817 13.6906 37.832C13.6207 37.827 13.5558 37.827 13.4909 37.827Z" fill="#F8901F"/>
<path d="M12.0328 37.832C11.8131 37.832 11.6034 37.6322 11.6084 37.4325C11.6134 37.2278 11.8181 37.053 12.0478 37.053C12.2775 37.058 12.4273 37.2078 12.4273 37.4475C12.4323 37.6772 12.2725 37.832 12.0328 37.832Z" fill="#F8901F"/>
<path d="M21.4752 35.2754C21.2156 34.846 20.9259 34.4415 20.7112 33.9971C19.8873 32.3094 19.8124 30.5767 20.5664 28.859C21.3154 27.1562 23.4376 26.3373 25.1103 27.4658C26.0291 28.085 26.3687 28.9938 26.3038 30.0773C26.2338 31.2108 25.6546 32.0048 24.6759 32.5291C24.1766 32.7937 23.6823 33.0633 23.1729 33.313C22.364 33.7125 21.7698 34.2867 21.5651 35.1955C21.5551 35.2155 21.5351 35.2255 21.4752 35.2754ZM24.9006 29.8776C24.9006 29.0537 24.2215 28.3447 23.4376 28.3546C22.5687 28.3646 21.8797 29.0437 21.8797 29.8776C21.8797 30.7015 22.5737 31.3756 23.4226 31.3856C24.2165 31.4006 24.8956 30.7015 24.9006 29.8776Z" fill="#F8901F"/>
<path d="M22.8234 35.1056C22.6986 34.3117 23.4226 33.3679 24.1317 33.353C24.6809 33.343 25.0854 33.7125 25.0554 34.2068C25.0205 34.7361 24.5811 35.0906 24.0368 35.0157C23.6323 34.9608 23.2329 34.8859 22.8234 35.1056Z" fill="#F8901F"/>
<path d="M13.7905 32.7338C14.0901 31.9948 14.3847 31.2608 14.6843 30.5218C14.919 29.9425 15.1487 29.3633 15.3834 28.7891C15.5881 28.2897 16.0774 28.085 16.6517 28.2498C17.0711 28.3696 17.3008 28.7791 17.2409 29.2784C17.111 30.352 16.9862 31.4256 16.8664 32.4991C16.8564 32.569 16.8614 32.6439 16.8913 32.7238C16.9762 32.5041 17.0611 32.2794 17.146 32.0597C17.5455 30.9961 17.9449 29.9276 18.3494 28.869C18.5291 28.3996 18.8887 28.1599 19.2931 28.2198C19.8973 28.3047 20.2269 28.874 19.9822 29.4482C19.6177 30.312 19.2382 31.1709 18.8687 32.0347C18.4942 32.8936 18.1297 33.7624 17.7502 34.6163C17.4306 35.3303 16.6367 35.595 16.0075 35.1955C15.613 34.9459 15.3983 34.5763 15.4483 34.102C15.5282 33.2731 15.633 32.4492 15.7229 31.6253C15.7479 31.4156 15.7678 31.2009 15.7479 30.9812C15.5681 31.4256 15.3883 31.87 15.2086 32.3144C14.889 33.0983 14.5844 33.8873 14.2499 34.6662C14.0152 35.2155 13.436 35.4851 12.8717 35.3453C12.3075 35.1955 11.918 34.6662 11.9579 34.087C11.9829 33.6825 12.0228 33.2731 12.0578 32.8686C12.1677 31.6203 12.2825 30.367 12.3874 29.1186C12.4473 28.4196 13.0365 28.0251 13.7006 28.2698C14.0951 28.4146 14.2948 28.8091 14.2299 29.2884C14.0751 30.367 13.9203 31.4455 13.7655 32.5191C13.7555 32.584 13.7555 32.6489 13.7505 32.7188C13.7605 32.7238 13.7755 32.7288 13.7905 32.7338Z" fill="#FAFAFA"/>
<path d="M34.2881 30.8363C34.5577 30.8363 34.8074 30.8513 35.0571 30.8314C35.2768 30.8114 35.4016 30.6566 35.4615 30.4419C35.6113 29.8726 35.7611 29.3034 35.9159 28.7342C36.0407 28.2748 36.1955 28.1499 36.6749 28.1449C36.8896 28.1449 37.1093 28.135 37.324 28.1499C37.7734 28.1749 37.9981 28.4745 37.8883 28.9139C37.374 30.9162 36.8596 32.9186 36.3453 34.9159C36.2604 35.2504 36.0857 35.3853 35.7411 35.4002C35.4915 35.4102 35.2418 35.4052 34.9921 35.4052C34.5178 35.3953 34.2781 35.0807 34.3929 34.6263C34.5527 33.9971 34.7175 33.373 34.8823 32.7488C34.9023 32.6739 34.9122 32.594 34.9322 32.4841C34.6875 32.4841 34.4728 32.4692 34.2581 32.4891C33.9985 32.5091 33.8387 32.6589 33.7738 32.9186C33.619 33.5377 33.4542 34.1569 33.2944 34.7761C33.1646 35.2904 33.0348 35.4002 32.5055 35.4152C32.3057 35.4202 32.106 35.4252 31.9063 35.4152C31.4069 35.4002 31.1772 35.1056 31.3021 34.6213C31.6466 33.2781 31.9961 31.9399 32.3407 30.5967C32.5005 29.9675 32.6653 29.3433 32.83 28.7142C32.9399 28.2947 33.1196 28.1549 33.5541 28.1549C33.7788 28.1549 34.0035 28.1449 34.2282 28.1599C34.6626 28.1849 34.8873 28.4545 34.7974 28.879C34.6776 29.4382 34.5178 29.9875 34.373 30.5417C34.338 30.6316 34.318 30.7265 34.2881 30.8363Z" fill="#FAFAFA"/>
<path d="M41.6882 35.5251C41.4635 35.4951 41.1439 35.4702 40.8393 35.4002C40.0654 35.2155 39.6659 34.6313 39.7757 33.8423C39.8407 33.3979 39.9455 32.9635 40.0554 32.5291C40.365 31.3157 40.6795 30.1023 41.0041 28.8889C41.1389 28.3796 41.5634 28.095 42.0677 28.1449C42.5021 28.1849 42.8866 28.5644 42.9215 29.0188C42.9315 29.1536 42.9116 29.3034 42.8766 29.4382C42.5371 30.7664 42.1925 32.0897 41.848 33.4179C41.828 33.4878 41.813 33.5627 41.803 33.6376C41.7631 33.8573 41.7231 34.077 41.9678 34.2068C42.1725 34.3117 42.547 34.2168 42.6869 34.0071C42.7717 33.8773 42.8416 33.7275 42.8816 33.5777C43.2761 32.0847 43.6655 30.5917 44.04 29.0937C44.1998 28.4695 44.5194 28.1449 45.0487 28.1399C45.6679 28.135 46.1322 28.6493 46.0124 29.2535C45.9076 29.8077 45.7428 30.352 45.603 30.8963C45.4082 31.6702 45.2185 32.4442 45.0038 33.2082C44.9089 33.5427 44.7741 33.8673 44.6043 34.1719C44.1749 34.9508 43.4858 35.3553 42.612 35.4502C42.3423 35.4801 42.0627 35.4951 41.6882 35.5251Z" fill="#FAFAFA"/>
<path d="M49.318 28.125C49.7973 28.1449 50.2867 28.135 50.7611 28.1949C51.525 28.2897 51.8896 28.6992 51.9395 29.4732C52.0294 30.8713 51.2204 32.5341 49.1033 32.609C48.8786 32.619 48.6539 32.6289 48.4292 32.604C48.1945 32.579 48.1146 32.6839 48.0647 32.8936C47.9049 33.5727 47.7251 34.2468 47.5553 34.9209C47.4555 35.3154 47.3656 35.3803 46.9711 35.3853C46.6615 35.3853 46.3569 35.3903 46.0474 35.3853C45.6179 35.3803 45.4681 35.1905 45.573 34.7811C46.0524 32.9086 46.5317 31.0311 47.0161 29.1586C47.2008 28.4445 47.6053 28.1449 48.3443 28.1449C48.6689 28.1449 48.9934 28.1449 49.318 28.1449C49.318 28.135 49.318 28.13 49.318 28.125ZM48.529 31.1759C49.4079 31.3706 49.8523 30.7065 49.8722 30.0724C49.8772 29.8926 49.8722 29.6629 49.6575 29.613C49.4378 29.5581 49.2031 29.578 48.9734 29.573C48.9535 29.573 48.9185 29.633 48.9085 29.6729C48.7887 30.1672 48.6589 30.6666 48.529 31.1759Z" fill="#FAFAFA"/>
<path d="M27.7868 33.1433C27.7718 33.358 27.7418 33.5577 27.7418 33.7524C27.7468 34.0371 27.8667 34.1469 28.1413 34.1419C28.6556 34.1369 29.085 33.6226 28.9602 33.1183C28.9252 32.9885 28.7904 32.8536 28.6656 32.7787C28.366 32.604 28.0464 32.4592 27.7269 32.3194C26.5834 31.83 26.5135 31.071 26.838 30.1023C27.2275 28.9339 28.0964 28.3347 29.2848 28.2049C29.7292 28.1549 30.2035 28.1699 30.643 28.2548C31.357 28.3946 31.7215 28.9788 31.6316 29.7029C31.5917 30.0274 31.372 30.3071 31.0524 30.332C30.618 30.367 30.1786 30.342 29.7292 30.342C29.7491 30.1523 29.7791 29.9825 29.7791 29.8127C29.7791 29.5581 29.6543 29.4532 29.3996 29.4632C29.075 29.4732 28.8404 29.6879 28.7305 30.0674C28.6506 30.352 28.7055 30.5068 29.0301 30.6965C29.3746 30.9013 29.7392 31.066 30.0837 31.2608C31.0175 31.7851 31.2322 32.0747 30.9376 33.2831C30.643 34.4865 29.7392 35.2155 28.4559 35.3603C27.8916 35.4252 27.3274 35.4402 26.7731 35.2754C26.0291 35.0557 25.6846 34.4815 25.8294 33.7275C25.8843 33.4379 26.124 33.1732 26.4136 33.1582C26.873 33.1233 27.3274 33.1433 27.7868 33.1433Z" fill="#FAFAFA"/>
<path d="M38.8869 30.9362C39.0267 30.9362 39.1716 30.9312 39.3114 30.9362C39.566 30.9462 39.7058 31.096 39.6609 31.3407C39.601 31.6652 39.5261 31.9898 39.4362 32.3094C39.4212 32.3743 39.3214 32.4542 39.2564 32.4542C38.9568 32.4692 38.6572 32.4692 38.3576 32.4592C38.098 32.4492 37.9732 32.2844 38.0281 32.0248C38.088 31.7401 38.1629 31.4605 38.2128 31.1759C38.2428 30.9911 38.3277 30.9162 38.5124 30.9362C38.6373 30.9462 38.7621 30.9362 38.8869 30.9362Z" fill="#FAFAFA"/>
<path d="M30.598 37.822L30.8726 36.5037H31.2272C31.327 36.5037 31.387 36.5037 31.4169 36.5087C31.4718 36.5137 31.5218 36.5237 31.5617 36.5437C31.6017 36.5637 31.6416 36.5836 31.6766 36.6136C31.7115 36.6436 31.7415 36.6785 31.7665 36.7235C31.7914 36.7684 31.8114 36.8133 31.8264 36.8683C31.8414 36.9232 31.8463 36.9831 31.8463 37.048C31.8463 37.1878 31.8214 37.3177 31.7665 37.4275C31.7115 37.5374 31.6416 37.6222 31.5617 37.6872C31.4968 37.7371 31.4169 37.777 31.3171 37.797C31.2621 37.812 31.1722 37.817 31.0574 37.817H30.598V37.822ZM30.9126 37.6073H31.0524C31.1523 37.6073 31.2222 37.6023 31.2671 37.5873C31.3121 37.5723 31.352 37.5523 31.392 37.5174C31.4469 37.4675 31.4918 37.4025 31.5268 37.3226C31.5617 37.2428 31.5817 37.1479 31.5817 37.038C31.5817 36.9432 31.5667 36.8733 31.5368 36.8283C31.5068 36.7834 31.4669 36.7484 31.4269 36.7334C31.3969 36.7235 31.342 36.7185 31.2621 36.7185H31.1073L30.9126 37.6073Z" fill="#FAFAFA"/>
<path d="M31.8763 37.9268H32.131L32.081 38.1765H31.8264L31.8763 37.9268ZM32.101 36.8683H32.3607L32.1609 37.822H31.9013L32.101 36.8683ZM32.1759 36.5037H32.4356L32.3856 36.7384H32.126L32.1759 36.5037Z" fill="#FAFAFA"/>
<path d="M33.0398 37.4625L33.2894 37.5024C33.2495 37.6123 33.1846 37.6971 33.1047 37.7571C33.0248 37.817 32.9299 37.842 32.825 37.842C32.7052 37.842 32.6053 37.807 32.5354 37.7321C32.4655 37.6572 32.4306 37.5623 32.4306 37.4325C32.4306 37.3276 32.4505 37.2328 32.4955 37.1379C32.5404 37.048 32.6053 36.9731 32.6902 36.9182C32.7751 36.8633 32.87 36.8383 32.9748 36.8383C33.0897 36.8383 33.1796 36.8683 33.2445 36.9282C33.3094 36.9881 33.3493 37.063 33.3593 37.1579L33.1147 37.1828C33.1097 37.1279 33.0947 37.088 33.0647 37.063C33.0398 37.038 33.0048 37.0231 32.9599 37.0231C32.9099 37.0231 32.865 37.043 32.82 37.078C32.7751 37.1129 32.7451 37.1728 32.7202 37.2428C32.6952 37.3127 32.6852 37.3876 32.6852 37.4525C32.6852 37.5074 32.7002 37.5523 32.7252 37.5823C32.7551 37.6123 32.7851 37.6272 32.83 37.6272C32.87 37.6272 32.9099 37.6123 32.9499 37.5823C32.9898 37.5523 33.0198 37.5224 33.0398 37.4625Z" fill="#FAFAFA"/>
<path d="M33.6589 37.822H33.3993L33.6739 36.5037H33.9336L33.8337 36.9731C33.8936 36.9282 33.9485 36.8932 33.9985 36.8733C34.0484 36.8533 34.1033 36.8433 34.1583 36.8433C34.2332 36.8433 34.2981 36.8633 34.343 36.9082C34.3879 36.9531 34.4079 37.0131 34.4079 37.083C34.4079 37.1229 34.3979 37.1828 34.383 37.2627L34.2681 37.822H34.0085L34.1283 37.2527C34.1433 37.1928 34.1483 37.1529 34.1483 37.1329C34.1483 37.1029 34.1383 37.078 34.1183 37.058C34.0983 37.038 34.0734 37.028 34.0384 37.028C33.9935 37.028 33.9535 37.043 33.9136 37.073C33.8637 37.1129 33.8237 37.1629 33.7937 37.2178C33.7788 37.2477 33.7588 37.3226 33.7338 37.4425L33.6589 37.822Z" fill="#FAFAFA"/>
<path d="M35.4765 37.822H35.2568L35.067 36.8683H35.3217L35.3866 37.2827C35.4066 37.3975 35.4166 37.4724 35.4216 37.5074C35.4266 37.4974 35.4465 37.4575 35.4865 37.3926C35.5214 37.3276 35.5464 37.2827 35.5564 37.2727L35.7961 36.8683H36.0757L35.4765 37.822Z" fill="#FAFAFA"/>
<path d="M36.2005 36.8683H36.4602L36.3403 37.4325C36.3254 37.5024 36.3204 37.5424 36.3204 37.5573C36.3204 37.5873 36.3304 37.6073 36.3503 37.6272C36.3703 37.6472 36.3953 37.6572 36.4302 37.6572C36.4552 37.6572 36.4752 37.6522 36.4951 37.6422C36.5151 37.6322 36.5401 37.6222 36.565 37.6023C36.59 37.5823 36.61 37.5623 36.63 37.5424C36.6499 37.5224 36.6649 37.4874 36.6799 37.4525C36.6899 37.4225 36.7049 37.3776 36.7148 37.3177L36.8097 36.8633H37.0694L36.8696 37.817H36.63L36.6549 37.6872C36.5501 37.787 36.4352 37.837 36.3104 37.837C36.2305 37.837 36.1706 37.812 36.1256 37.772C36.0807 37.7271 36.0607 37.6672 36.0607 37.5923C36.0607 37.5573 36.0707 37.4924 36.0907 37.3975L36.2005 36.8683ZM36.2455 37.9268H36.5001L36.4502 38.1765H36.1955L36.2455 37.9268Z" fill="#FAFAFA"/>
<path d="M37.7884 36.8683H38.0281L37.9881 37.053C38.078 36.9132 38.1729 36.8433 38.2777 36.8433C38.3127 36.8433 38.3526 36.8533 38.3976 36.8733L38.2977 37.083C38.2728 37.073 38.2478 37.068 38.2228 37.068C38.1779 37.068 38.1329 37.083 38.088 37.1179C38.0431 37.1529 38.0081 37.1978 37.9781 37.2527C37.9532 37.3077 37.9282 37.3975 37.9032 37.5174L37.8383 37.817H37.5787L37.7884 36.8683Z" fill="#FAFAFA"/>
<path d="M39.4412 36.8683H39.7008L39.6559 37.073C39.6309 37.1928 39.591 37.2777 39.5411 37.3226C39.4861 37.3726 39.3913 37.3975 39.2514 37.3975L39.1616 37.817H38.9219L38.9469 37.6872C38.842 37.787 38.7271 37.837 38.6023 37.837C38.5224 37.837 38.4625 37.817 38.4176 37.772C38.3726 37.7271 38.3477 37.6672 38.3477 37.5923C38.3477 37.5573 38.3576 37.4924 38.3776 37.3975L38.4875 36.8633H38.7471L38.6273 37.4275C38.6123 37.4974 38.6073 37.5374 38.6073 37.5523C38.6073 37.5823 38.6173 37.6023 38.6373 37.6222C38.6572 37.6422 38.6822 37.6522 38.7172 37.6522C38.7621 37.6522 38.807 37.6322 38.852 37.5973C38.9019 37.5573 38.9419 37.5074 38.9668 37.4475C38.9768 37.4225 38.9918 37.3776 39.0018 37.3127L39.0967 36.8583H39.3563L39.2714 37.2727C39.3563 37.2727 39.4162 37.2577 39.4462 37.2228C39.4712 37.1978 39.4861 37.1579 39.4961 37.1079H39.3763L39.4412 36.8683ZM38.9818 36.6286C39.0168 36.6186 39.0367 36.5986 39.0417 36.5786C39.0467 36.5637 39.0367 36.5537 39.0218 36.5437C38.9968 36.5287 38.9618 36.5237 38.9069 36.5237C38.8869 36.5237 38.862 36.5237 38.822 36.5287L38.832 36.4388C38.857 36.4338 38.8969 36.4338 38.9618 36.4338C39.0367 36.4338 39.0917 36.4488 39.1416 36.4738C39.1815 36.4938 39.1965 36.5237 39.1965 36.5587C39.1965 36.5936 39.1815 36.6236 39.1516 36.6535C39.1166 36.6835 39.0667 36.7035 39.0068 36.7135L38.9968 36.7584H38.8969L38.9169 36.6486C38.9469 36.6336 38.9718 36.6336 38.9818 36.6286Z" fill="#FAFAFA"/>
<path d="M39.9555 37.1379L39.7058 37.1179C39.7358 37.033 39.7857 36.9681 39.8556 36.9182C39.9255 36.8683 40.0204 36.8483 40.1403 36.8483C40.2651 36.8483 40.355 36.8733 40.4149 36.9232C40.4748 36.9731 40.5048 37.033 40.5048 37.1029C40.5048 37.1329 40.4998 37.1629 40.4948 37.1928C40.4898 37.2228 40.4698 37.3127 40.4399 37.4475C40.4149 37.5623 40.3999 37.6422 40.3999 37.6872C40.3999 37.7271 40.4049 37.772 40.4199 37.822H40.1702C40.1602 37.787 40.1552 37.7521 40.1502 37.7121C40.1103 37.7521 40.0704 37.787 40.0204 37.807C39.9705 37.827 39.9206 37.842 39.8706 37.842C39.7907 37.842 39.7258 37.817 39.6759 37.7621C39.6259 37.7121 39.601 37.6422 39.601 37.5623C39.601 37.4724 39.6309 37.3975 39.6859 37.3426C39.7408 37.2877 39.8457 37.2527 39.9905 37.2428C40.1153 37.2328 40.1952 37.2228 40.2351 37.2078C40.2451 37.1728 40.2501 37.1429 40.2501 37.1229C40.2501 37.093 40.2401 37.073 40.2152 37.053C40.1952 37.033 40.1602 37.0231 40.1153 37.0231C40.0704 37.0231 40.0304 37.033 40.0054 37.053C39.9855 37.073 39.9655 37.1029 39.9555 37.1379ZM40.2052 37.3776C40.1902 37.3826 40.1702 37.3876 40.1453 37.3876C40.0154 37.4025 39.9305 37.4275 39.8906 37.4575C39.8606 37.4774 39.8506 37.5074 39.8506 37.5424C39.8506 37.5723 39.8606 37.5973 39.8806 37.6173C39.9006 37.6372 39.9305 37.6472 39.9655 37.6472C40.0054 37.6472 40.0404 37.6372 40.0753 37.6173C40.1103 37.5973 40.1353 37.5723 40.1502 37.5424C40.1652 37.5124 40.1802 37.4675 40.1952 37.4025L40.2052 37.3776Z" fill="#FAFAFA"/>
<path d="M41.5334 37.5523L41.2937 37.822H40.9791L41.4186 37.3326L41.1739 36.8683H41.4485L41.5883 37.1429L41.828 36.8683H42.1426L41.6982 37.3626L41.9379 37.822H41.6682L41.5334 37.5523Z" fill="#FAFAFA"/>
<path d="M43.0264 37.4225H42.3773C42.3773 37.4325 42.3773 37.4425 42.3773 37.4475C42.3773 37.5124 42.3972 37.5623 42.4322 37.6023C42.4671 37.6422 42.5121 37.6622 42.567 37.6622C42.6519 37.6622 42.7218 37.6173 42.7667 37.5274L42.9964 37.5673C42.9515 37.6622 42.8916 37.7321 42.8167 37.777C42.7418 37.822 42.6569 37.8469 42.562 37.8469C42.4322 37.8469 42.3273 37.807 42.2474 37.7271C42.1675 37.6472 42.1276 37.5374 42.1276 37.4025C42.1276 37.2727 42.1626 37.1579 42.2375 37.053C42.3373 36.9132 42.4771 36.8483 42.6619 36.8483C42.7767 36.8483 42.8716 36.8832 42.9415 36.9581C43.0114 37.033 43.0464 37.1329 43.0464 37.2627C43.0414 37.3177 43.0364 37.3726 43.0264 37.4225ZM42.8067 37.2677C42.8067 37.2577 42.8067 37.2477 42.8067 37.2428C42.8067 37.1728 42.7917 37.1179 42.7568 37.083C42.7268 37.048 42.6819 37.028 42.6269 37.028C42.572 37.028 42.5271 37.048 42.4821 37.088C42.4422 37.1279 42.4122 37.1878 42.3972 37.2677H42.8067Z" fill="#FAFAFA"/>
<path d="M44.2398 37.4625L44.4894 37.5024C44.4495 37.6123 44.3846 37.6971 44.3047 37.7571C44.2248 37.817 44.1299 37.842 44.0251 37.842C43.9052 37.842 43.8054 37.807 43.7355 37.7321C43.6655 37.6572 43.6306 37.5623 43.6306 37.4325C43.6306 37.3276 43.6506 37.2328 43.6955 37.1379C43.7404 37.048 43.8054 36.9731 43.8902 36.9182C43.9751 36.8633 44.07 36.8383 44.1749 36.8383C44.2897 36.8383 44.3796 36.8683 44.4445 36.9282C44.5094 36.9881 44.5494 37.063 44.5594 37.1579L44.3147 37.1828C44.3097 37.1279 44.2947 37.088 44.2647 37.063C44.2398 37.038 44.2048 37.0231 44.1599 37.0231C44.11 37.0231 44.065 37.043 44.0201 37.078C43.9751 37.1129 43.9452 37.1728 43.9202 37.2428C43.8952 37.3127 43.8853 37.3876 43.8853 37.4525C43.8853 37.5074 43.9002 37.5523 43.9252 37.5823C43.9552 37.6123 43.9851 37.6272 44.0301 37.6272C44.07 37.6272 44.11 37.6123 44.1499 37.5823C44.1898 37.5523 44.2198 37.5224 44.2398 37.4625Z" fill="#FAFAFA"/>
<path d="M44.6392 37.4225C44.6392 37.2477 44.6892 37.1029 44.789 36.9981C44.8889 36.8932 45.0187 36.8383 45.1835 36.8383C45.3233 36.8383 45.4332 36.8782 45.5131 36.9531C45.593 37.033 45.6329 37.1329 45.6329 37.2677C45.6329 37.4225 45.583 37.5573 45.4831 37.6672C45.3833 37.782 45.2534 37.837 45.0837 37.837C44.9938 37.837 44.9139 37.817 44.844 37.782C44.7741 37.7471 44.7241 37.6971 44.6892 37.6272C44.6542 37.5573 44.6392 37.5024 44.6392 37.4225ZM45.3733 37.2428C45.3733 37.1828 45.3533 37.1329 45.3183 37.0979C45.2834 37.063 45.2384 37.043 45.1785 37.043C45.1236 37.043 45.0737 37.058 45.0287 37.093C44.9838 37.1279 44.9538 37.1778 44.9289 37.2428C44.9039 37.3077 44.8939 37.3676 44.8939 37.4225C44.8939 37.4924 44.9139 37.5473 44.9488 37.5873C44.9838 37.6272 45.0337 37.6472 45.0886 37.6472C45.1586 37.6472 45.2185 37.6173 45.2684 37.5573C45.3383 37.4675 45.3733 37.3626 45.3733 37.2428ZM45.2784 36.5836L45.1186 36.7434H44.9089L45.1735 36.4738H45.4132L45.5231 36.7434H45.3433L45.2784 36.5836Z" fill="#FAFAFA"/>
<path d="M45.9075 36.8683H46.1522L46.1273 36.9931C46.1872 36.9382 46.2471 36.9032 46.297 36.8782C46.352 36.8533 46.4069 36.8433 46.4668 36.8433C46.5467 36.8433 46.6066 36.8633 46.6516 36.9082C46.6965 36.9531 46.7215 37.0131 46.7215 37.088C46.7215 37.1229 46.7115 37.1828 46.6915 37.2777L46.5816 37.817H46.322L46.4368 37.2777C46.4518 37.1978 46.4618 37.1479 46.4618 37.1329C46.4618 37.0979 46.4518 37.073 46.4318 37.053C46.4119 37.033 46.3869 37.0231 46.352 37.0231C46.312 37.0231 46.2721 37.038 46.2271 37.073C46.1822 37.1079 46.1472 37.1479 46.1173 37.1978C46.0973 37.2328 46.0773 37.3127 46.0524 37.4275L45.9725 37.817H45.7128L45.9075 36.8683Z" fill="#FAFAFA"/>
<path d="M46.7964 37.8719L47.071 37.9119C47.071 37.9418 47.076 37.9618 47.086 37.9768C47.096 37.9918 47.1109 38.0017 47.1309 38.0117C47.1509 38.0217 47.1808 38.0267 47.2108 38.0267C47.2657 38.0267 47.3107 38.0167 47.3406 37.9967C47.3656 37.9818 47.3856 37.9518 47.4006 37.9169C47.4105 37.8919 47.4205 37.842 47.4355 37.7621L47.4455 37.7171C47.3556 37.792 47.2657 37.827 47.1709 37.827C47.076 37.827 47.0011 37.792 46.9412 37.7271C46.8812 37.6622 46.8513 37.5623 46.8513 37.4375C46.8513 37.3276 46.8713 37.2228 46.9112 37.1279C46.9512 37.033 47.0111 36.9631 47.081 36.9182C47.1509 36.8733 47.2308 36.8483 47.3057 36.8483C47.3706 36.8483 47.4255 36.8633 47.4804 36.8982C47.5354 36.9332 47.5753 36.9781 47.6053 37.038L47.6402 36.8683H47.8799L47.7151 37.6622C47.6902 37.792 47.6652 37.8819 47.6452 37.9368C47.6253 37.9918 47.6053 38.0367 47.5803 38.0667C47.5553 38.0966 47.5254 38.1266 47.4904 38.1465C47.4555 38.1665 47.4105 38.1865 47.3606 38.1915C47.3107 38.2015 47.2557 38.2065 47.2008 38.2065C47.066 38.2065 46.9661 38.1815 46.8962 38.1366C46.8263 38.0916 46.7914 38.0117 46.7914 37.9069C46.7964 37.8969 46.7964 37.8869 46.7964 37.8719ZM47.101 37.4125C47.101 37.4874 47.1159 37.5424 47.1509 37.5773C47.1858 37.6173 47.2258 37.6322 47.2757 37.6322C47.3207 37.6322 47.3656 37.6173 47.4055 37.5823C47.4455 37.5473 47.4804 37.4974 47.5004 37.4375C47.5254 37.3726 47.5354 37.3127 47.5354 37.2527C47.5354 37.1828 47.5154 37.1329 47.4804 37.088C47.4455 37.048 47.4006 37.028 47.3556 37.028C47.3107 37.028 47.2657 37.048 47.2308 37.083C47.1958 37.1179 47.1609 37.1778 47.1359 37.2527C47.1109 37.3127 47.101 37.3626 47.101 37.4125Z" fill="#FAFAFA"/>
<path d="M48.6139 36.8683H48.8586L48.8336 36.9931C48.8936 36.9382 48.9535 36.9032 49.0034 36.8782C49.0583 36.8533 49.1133 36.8433 49.1732 36.8433C49.2531 36.8433 49.313 36.8633 49.3579 36.9082C49.4029 36.9531 49.4278 37.0131 49.4278 37.088C49.4278 37.1229 49.4179 37.1828 49.3979 37.2777L49.288 37.817H49.0284L49.1432 37.2777C49.1582 37.1978 49.1682 37.1479 49.1682 37.1329C49.1682 37.0979 49.1582 37.073 49.1382 37.053C49.1183 37.033 49.0933 37.0231 49.0583 37.0231C49.0184 37.0231 48.9784 37.038 48.9335 37.073C48.8886 37.1079 48.8536 37.1479 48.8237 37.1978C48.8037 37.2328 48.7837 37.3127 48.7587 37.4275L48.6788 37.817H48.4192L48.6139 36.8683Z" fill="#FAFAFA"/>
<path d="M49.5027 37.8719L49.7774 37.9119C49.7774 37.9418 49.7824 37.9618 49.7924 37.9768C49.8023 37.9918 49.8173 38.0017 49.8373 38.0117C49.8573 38.0217 49.8872 38.0267 49.9172 38.0267C49.9721 38.0267 50.0171 38.0167 50.047 37.9967C50.072 37.9818 50.092 37.9518 50.1069 37.9169C50.1169 37.8919 50.1269 37.842 50.1419 37.7621L50.1519 37.7171C50.062 37.792 49.9721 37.827 49.8772 37.827C49.7824 37.827 49.7075 37.792 49.6475 37.7271C49.5876 37.6622 49.5577 37.5623 49.5577 37.4375C49.5577 37.3276 49.5776 37.2228 49.6176 37.1279C49.6575 37.033 49.7175 36.9631 49.7874 36.9182C49.8573 36.8733 49.9372 36.8483 50.0121 36.8483C50.077 36.8483 50.1319 36.8633 50.1868 36.8982C50.2418 36.9332 50.2817 36.9781 50.3117 37.038L50.3466 36.8683H50.5863L50.4215 37.6622C50.3965 37.792 50.3716 37.8819 50.3516 37.9368C50.3316 37.9918 50.3117 38.0367 50.2867 38.0667C50.2617 38.0966 50.2318 38.1266 50.1968 38.1465C50.1619 38.1665 50.1169 38.1865 50.067 38.1915C50.0171 38.2015 49.9621 38.2065 49.9072 38.2065C49.7724 38.2065 49.6725 38.1815 49.6026 38.1366C49.5327 38.0916 49.4977 38.0117 49.4977 37.9069C49.4977 37.8969 49.4978 37.8869 49.5027 37.8719ZM49.8023 37.4125C49.8023 37.4874 49.8173 37.5424 49.8523 37.5773C49.8872 37.6173 49.9272 37.6322 49.9771 37.6322C50.022 37.6322 50.067 37.6173 50.1069 37.5823C50.1469 37.5473 50.1818 37.4974 50.2018 37.4375C50.2268 37.3726 50.2368 37.3127 50.2368 37.2527C50.2368 37.1828 50.2168 37.1329 50.1818 37.088C50.1469 37.048 50.1019 37.028 50.057 37.028C50.0121 37.028 49.9671 37.048 49.9322 37.083C49.8972 37.1179 49.8623 37.1778 49.8373 37.2527C49.8123 37.3127 49.8023 37.3626 49.8023 37.4125Z" fill="#FAFAFA"/>
<path d="M50.8809 37.822H50.6212L50.8959 36.5037H51.1555L51.0557 36.9731C51.1156 36.9282 51.1705 36.8932 51.2204 36.8733C51.2704 36.8533 51.3253 36.8433 51.3802 36.8433C51.4551 36.8433 51.52 36.8633 51.565 36.9082C51.6099 36.9531 51.6299 37.0131 51.6299 37.083C51.6299 37.1229 51.6199 37.1828 51.6049 37.2627L51.4901 37.822H51.2304L51.3503 37.2527C51.3653 37.1928 51.3702 37.1529 51.3702 37.1329C51.3702 37.1029 51.3603 37.078 51.3403 37.058C51.3203 37.038 51.2953 37.028 51.2604 37.028C51.2155 37.028 51.1755 37.043 51.1356 37.073C51.0856 37.1129 51.0457 37.1629 51.0157 37.2178C51.0007 37.2477 50.9808 37.3226 50.9558 37.4425L50.8809 37.822Z" fill="#FAFAFA"/>
<path d="M52.6535 37.4225H52.0044C52.0044 37.4325 52.0044 37.4425 52.0044 37.4475C52.0044 37.5124 52.0244 37.5623 52.0593 37.6023C52.0943 37.6422 52.1392 37.6622 52.1941 37.6622C52.279 37.6622 52.3489 37.6173 52.3939 37.5274L52.6236 37.5673C52.5786 37.6622 52.5187 37.7321 52.4438 37.777C52.3689 37.822 52.284 37.8469 52.1892 37.8469C52.0593 37.8469 51.9545 37.807 51.8746 37.7271C51.7947 37.6472 51.7547 37.5374 51.7547 37.4025C51.7547 37.2727 51.7897 37.1579 51.8646 37.053C51.9645 36.9132 52.1043 36.8483 52.289 36.8483C52.4039 36.8483 52.4987 36.8832 52.5686 36.9581C52.6385 37.033 52.6735 37.1329 52.6735 37.2627C52.6735 37.3177 52.6685 37.3726 52.6535 37.4225ZM52.0394 37.9268H52.294L52.2441 38.1765H51.9894L52.0394 37.9268ZM52.3639 36.5836L52.2041 36.7434H51.9944L52.2591 36.4738H52.4987L52.6086 36.7434H52.4288L52.3639 36.5836ZM52.4388 37.2677C52.4388 37.2577 52.4388 37.2477 52.4388 37.2428C52.4388 37.1728 52.4238 37.1179 52.3889 37.083C52.3589 37.048 52.314 37.028 52.2591 37.028C52.2041 37.028 52.1592 37.048 52.1143 37.088C52.0743 37.1279 52.0443 37.1878 52.0294 37.2677H52.4388Z" fill="#FAFAFA"/>
</g>
<defs>
<clipPath id="clip0_2_2354">
<rect width="41.0651" height="11.2599" fill="white" transform="translate(11.6084 26.9465)"/>
</clipPath>
</defs>
</svg>
