<svg width="65" height="65" viewBox="0 0 65 65" fill="none" xmlns="http://www.w3.org/2000/svg">
<rect width="65" height="65" rx="8" fill="#1E8AE7"/>
<path fill-rule="evenodd" clip-rule="evenodd" d="M19.2347 15.9185C16.3041 15.9185 13.9286 18.2941 13.9286 21.2247C13.9286 24.1551 16.3041 26.5308 19.2347 26.5308H30.7218L17.7092 39.8313C15.6218 41.9646 15.6593 45.3861 17.7927 47.4733C18.523 48.1878 19.4041 48.6533 20.3311 48.8711C20.7981 49.0081 21.2923 49.0816 21.8037 49.0816H45.7653C48.6959 49.0816 51.0714 46.7059 51.0714 43.7755C51.0714 40.8449 48.6959 38.4694 45.7653 38.4694H34.1622L46.3488 26.0134C46.8881 25.4622 47.2856 24.8249 47.5417 24.1469C48.0957 23.3089 48.4182 22.3044 48.4182 21.2247C48.4182 18.2941 46.0425 15.9185 43.1121 15.9185H19.2347Z" fill="#F0F0F0"/>
<path d="M51.0711 43.7757C51.0711 40.8452 48.6955 38.4696 45.765 38.4696H35.5949C29.9292 38.4696 27.5249 45.6823 32.0576 49.0818H45.765C48.6955 49.0818 51.0711 46.7062 51.0711 43.7757Z" fill="url(#paint0_linear_2_2341)"/>
<path d="M13.9286 21.2247C13.9286 18.2941 16.3041 15.9185 19.2347 15.9185H26.9293C32.5363 15.9185 35.0949 22.9126 30.8115 26.5308H19.2347C16.3041 26.5308 13.9286 24.1551 13.9286 21.2247Z" fill="url(#paint1_linear_2_2341)"/>
<defs>
<linearGradient id="paint0_linear_2_2341" x1="51.0711" y1="44.439" x2="29.4091" y2="44.439" gradientUnits="userSpaceOnUse">
<stop stop-color="white"/>
<stop offset="1" stop-color="#E0E0E0"/>
</linearGradient>
<linearGradient id="paint1_linear_2_2341" x1="13.9286" y1="21.8879" x2="33.1632" y2="21.8879" gradientUnits="userSpaceOnUse">
<stop stop-color="white"/>
<stop offset="1" stop-color="#E1E1E1"/>
</linearGradient>
</defs>
</svg>
